<svg xmlns="http://www.w3.org/2000/svg" xmlns:xlink="http://www.w3.org/1999/xlink" contentStyleType="text/css" data-diagram-type="CHEN_EER" height="460px" preserveAspectRatio="none" style="width:8150px;height:460px;background:#FFFFFF;" version="1.1" viewBox="0 0 8150 460" width="8150px" zoomAndPan="magnify"><?plantuml $version$?><defs/><g><g><rect fill="#F1F1F1" height="39.0679" style="stroke:#181818;stroke-width:0.5;" width="66.0038" x="652.28" y="407.78"/><text fill="#000000" font-family="sans-serif" font-size="14" lengthAdjust="spacing" textLength="46.0038" x="662.28" y="432.7459">Project</text></g><g><ellipse cx="1248.2826" cy="315.5625" fill="#F1F1F1" rx="71.4626" ry="16.6925" style="stroke:#181818;stroke-width:0.5;"/><text fill="#000000" font-family="sans-serif" font-size="14" lengthAdjust="spacing" text-decoration="underline" textLength="98.2796" x="1199.1428" y="319.8359">name : STRING</text></g><g><ellipse cx="72.2773" cy="315.5631" fill="#F1F1F1" rx="66.2773" ry="16.4831" style="stroke:#181818;stroke-width:0.5;"/><text fill="#000000" font-family="sans-serif" font-size="14" lengthAdjust="spacing" textLength="89.4876" x="27.5335" y="320.0459">type : STRING</text></g><g><ellipse cx="352.2763" cy="315.5573" fill="#F1F1F1" rx="85.4363" ry="19.4873" style="stroke:#181818;stroke-width:0.5;"/><text fill="#000000" font-family="sans-serif" font-size="14" lengthAdjust="spacing" textLength="134.5115" x="285.0206" y="317.0359">description : STRING</text></g><g><ellipse cx="571.2823" cy="315.5625" fill="#F1F1F1" rx="98.3623" ry="22.0725" style="stroke:#181818;stroke-width:0.5;"/><ellipse cx="571.2823" cy="315.5625" fill="#F1F1F1" rx="95.3623" ry="19.0725" style="stroke:#181818;stroke-width:0.5;"/><text fill="#000000" font-family="sans-serif" font-size="14" lengthAdjust="spacing" textLength="165.1853" x="488.6896" y="314.4559">languageProfile : STRING</text></g><g><ellipse cx="799.2816" cy="315.5583" fill="#F1F1F1" rx="94.4916" ry="21.2983" style="stroke:#181818;stroke-width:0.5;"/><ellipse cx="799.2816" cy="315.5583" fill="#F1F1F1" rx="91.4916" ry="18.2983" style="stroke:#181818;stroke-width:0.5;"/><text fill="#000000" font-family="sans-serif" font-size="14" lengthAdjust="spacing" textLength="156.1834" x="721.19" y="315.2259">runtimeProfile : STRING</text></g><g><ellipse cx="1035.2759" cy="315.5552" fill="#F1F1F1" rx="106.2259" ry="23.6452" style="stroke:#181818;stroke-width:0.5;"/><text fill="#000000" font-family="sans-serif" font-size="14" lengthAdjust="spacing" textLength="183.1193" x="943.7162" y="312.8759">architectureProfile : STRING</text></g><g><rect fill="#F1F1F1" height="39.0679" style="stroke:#181818;stroke-width:0.5;" width="57.8979" x="2915.33" y="407.78"/><text fill="#000000" font-family="sans-serif" font-size="14" lengthAdjust="spacing" textLength="37.8979" x="2925.33" y="432.7459">Setup</text></g><g><ellipse cx="2944.2826" cy="315.5625" fill="#F1F1F1" rx="71.4626" ry="16.6925" style="stroke:#181818;stroke-width:0.5;"/><text fill="#000000" font-family="sans-serif" font-size="14" lengthAdjust="spacing" text-decoration="underline" textLength="98.2796" x="2895.1428" y="319.8359">name : STRING</text></g><g><ellipse cx="3221.2828" cy="315.5626" fill="#F1F1F1" rx="75.4128" ry="17.4826" style="stroke:#181818;stroke-width:0.5;"/><text fill="#000000" font-family="sans-serif" font-size="14" lengthAdjust="spacing" textLength="109.0176" x="3166.774" y="319.0459">version : STRING</text></g><g><ellipse cx="3403.2789" cy="315.5638" fill="#F1F1F1" rx="71.6689" ry="16.7338" style="stroke:#181818;stroke-width:0.5;"/><text fill="#000000" font-family="sans-serif" font-size="14" lengthAdjust="spacing" textLength="98.8536" x="3353.8521" y="319.7959">mode : STRING</text></g><g><ellipse cx="2752.2763" cy="315.5573" fill="#F1F1F1" rx="85.4363" ry="19.4873" style="stroke:#181818;stroke-width:0.5;"/><text fill="#000000" font-family="sans-serif" font-size="14" lengthAdjust="spacing" textLength="134.5115" x="2685.0206" y="317.0359">description : STRING</text></g><g><rect fill="#F1F1F1" height="39.0679" style="stroke:#181818;stroke-width:0.5;" width="119.1896" x="3806.68" y="407.78"/><rect fill="#F1F1F1" height="33.0679" style="stroke:#181818;stroke-width:0.5;" width="113.1896" x="3809.68" y="410.78"/><text fill="#000000" font-family="sans-serif" font-size="14" lengthAdjust="spacing" textLength="99.1896" x="3816.68" y="432.7459">Setup question</text></g><g><ellipse cx="3866.2757" cy="315.5631" fill="#F1F1F1" rx="54.6257" ry="16.4831" style="stroke:#181818;stroke-width:0.5;"/><text fill="#000000" font-family="sans-serif" font-size="14" lengthAdjust="spacing" text-decoration="underline" textLength="73.0097" x="3829.7708" y="320.0459">id : STRING</text></g><g><ellipse cx="4032.2759" cy="315.5572" fill="#F1F1F1" rx="75.9359" ry="17.5872" style="stroke:#181818;stroke-width:0.5;"/><text fill="#000000" font-family="sans-serif" font-size="14" lengthAdjust="spacing" textLength="110.4036" x="3977.0741" y="318.9359">prompt : STRING</text></g><g><ellipse cx="3683.2829" cy="315.5646" fill="#F1F1F1" rx="92.9729" ry="20.9946" style="stroke:#181818;stroke-width:0.5;"/><text fill="#000000" font-family="sans-serif" font-size="14" lengthAdjust="spacing" textLength="152.6134" x="3606.9762" y="315.5359">defaultOption : STRING</text></g><g><rect fill="#F1F1F1" height="39.0679" style="stroke:#181818;stroke-width:0.5;" width="104.4057" x="5062.07" y="407.78"/><rect fill="#F1F1F1" height="33.0679" style="stroke:#181818;stroke-width:0.5;" width="98.4057" x="5065.07" y="410.78"/><text fill="#000000" font-family="sans-serif" font-size="14" lengthAdjust="spacing" textLength="84.4057" x="5072.07" y="432.7459">Setup option</text></g><g><ellipse cx="5114.2785" cy="315.5637" fill="#F1F1F1" rx="70.6185" ry="16.5237" style="stroke:#181818;stroke-width:0.5;"/><text fill="#000000" font-family="sans-serif" font-size="14" lengthAdjust="spacing" text-decoration="underline" textLength="95.9136" x="5066.3217" y="320.0059">value : STRING</text></g><g><ellipse cx="5288.2766" cy="315.5631" fill="#F1F1F1" rx="68.3166" ry="16.4831" style="stroke:#181818;stroke-width:0.5;"/><text fill="#000000" font-family="sans-serif" font-size="14" lengthAdjust="spacing" textLength="92.3716" x="5242.0908" y="320.0459">label : STRING</text></g><g><ellipse cx="5481.2791" cy="315.5558" fill="#F1F1F1" rx="89.6791" ry="20.3358" style="stroke:#181818;stroke-width:0.5;"/><text fill="#000000" font-family="sans-serif" font-size="14" lengthAdjust="spacing" textLength="144.7874" x="5408.8853" y="316.1859">classification : STRING</text></g><g><ellipse cx="4854.2789" cy="315.5578" fill="#F1F1F1" rx="74.3389" ry="17.2678" style="stroke:#181818;stroke-width:0.5;"/><text fill="#000000" font-family="sans-serif" font-size="14" lengthAdjust="spacing" textLength="106.1476" x="4801.2051" y="319.2559">reason : STRING</text></g><g><rect fill="#F1F1F1" height="39.0679" style="stroke:#181818;stroke-width:0.5;" width="66.5218" x="1960.02" y="407.78"/><text fill="#000000" font-family="sans-serif" font-size="14" lengthAdjust="spacing" textLength="46.5218" x="1970.02" y="432.7459">Bundle</text></g><g><ellipse cx="1713.2826" cy="315.5625" fill="#F1F1F1" rx="71.4626" ry="16.6925" style="stroke:#181818;stroke-width:0.5;"/><text fill="#000000" font-family="sans-serif" font-size="14" lengthAdjust="spacing" text-decoration="underline" textLength="98.2796" x="1664.1428" y="319.8359">name : STRING</text></g><g><ellipse cx="1895.2828" cy="315.5626" fill="#F1F1F1" rx="75.4128" ry="17.4826" style="stroke:#181818;stroke-width:0.5;"/><text fill="#000000" font-family="sans-serif" font-size="14" lengthAdjust="spacing" textLength="109.0176" x="1840.774" y="319.0459">version : STRING</text></g><g><ellipse cx="2091.2763" cy="315.5573" fill="#F1F1F1" rx="85.4363" ry="19.4873" style="stroke:#181818;stroke-width:0.5;"/><text fill="#000000" font-family="sans-serif" font-size="14" lengthAdjust="spacing" textLength="134.5115" x="2024.0206" y="317.0359">description : STRING</text></g><g><rect fill="#F1F1F1" height="39.0679" style="stroke:#181818;stroke-width:0.5;" width="62.6578" x="6954.95" y="407.78"/><text fill="#000000" font-family="sans-serif" font-size="14" lengthAdjust="spacing" textLength="42.6578" x="6964.95" y="432.7459">Profile</text></g><g><ellipse cx="6986.2826" cy="315.5625" fill="#F1F1F1" rx="71.4626" ry="16.6925" style="stroke:#181818;stroke-width:0.5;"/><text fill="#000000" font-family="sans-serif" font-size="14" lengthAdjust="spacing" text-decoration="underline" textLength="98.2796" x="6937.1428" y="319.8359">name : STRING</text></g><g><ellipse cx="7168.2828" cy="315.5626" fill="#F1F1F1" rx="75.4128" ry="17.4826" style="stroke:#181818;stroke-width:0.5;"/><text fill="#000000" font-family="sans-serif" font-size="14" lengthAdjust="spacing" textLength="109.0176" x="7113.774" y="319.0459">version : STRING</text></g><g><ellipse cx="6156.2763" cy="315.5573" fill="#F1F1F1" rx="85.4363" ry="19.4873" style="stroke:#181818;stroke-width:0.5;"/><text fill="#000000" font-family="sans-serif" font-size="14" lengthAdjust="spacing" textLength="134.5115" x="6089.0206" y="317.0359">description : STRING</text></g><g><ellipse cx="6421.2765" cy="315.5613" fill="#F1F1F1" rx="144.1065" ry="31.2213" style="stroke:#181818;stroke-width:0.5;"/><ellipse cx="6421.2765" cy="315.5613" fill="#F1F1F1" rx="141.1065" ry="28.2213" style="stroke:#181818;stroke-width:0.5;"/><text fill="#000000" font-family="sans-serif" font-size="14" lengthAdjust="spacing" textLength="265.621" x="6288.466" y="305.3059">recommendedLanguageProfile : STRING</text></g><g><ellipse cx="6740.2846" cy="315.5609" fill="#F1F1F1" rx="139.5046" ry="30.3009" style="stroke:#181818;stroke-width:0.5;"/><ellipse cx="6740.2846" cy="315.5609" fill="#F1F1F1" rx="136.5046" ry="27.3009" style="stroke:#181818;stroke-width:0.5;"/><text fill="#000000" font-family="sans-serif" font-size="14" lengthAdjust="spacing" textLength="255.821" x="6612.3741" y="306.2259">recommendedRuntimeProfile : STRING</text></g><g><rect fill="#F1F1F1" height="39.0679" style="stroke:#181818;stroke-width:0.5;" width="82.6497" x="7559.95" y="407.78"/><text fill="#000000" font-family="sans-serif" font-size="14" lengthAdjust="spacing" textLength="62.6497" x="7569.95" y="432.7459">Workflow</text></g><g><ellipse cx="7829.2826" cy="315.5625" fill="#F1F1F1" rx="71.4626" ry="16.6925" style="stroke:#181818;stroke-width:0.5;"/><text fill="#000000" font-family="sans-serif" font-size="14" lengthAdjust="spacing" text-decoration="underline" textLength="98.2796" x="7780.1428" y="319.8359">name : STRING</text></g><g><rect fill="#F1F1F1" height="39.0679" style="stroke:#181818;stroke-width:0.5;" width="118.2796" x="4320.14" y="407.78"/><text fill="#000000" font-family="sans-serif" font-size="14" lengthAdjust="spacing" textLength="98.2796" x="4330.14" y="432.7459">Target adapter</text></g><g><ellipse cx="4484.2826" cy="315.5625" fill="#F1F1F1" rx="71.4626" ry="16.6925" style="stroke:#181818;stroke-width:0.5;"/><text fill="#000000" font-family="sans-serif" font-size="14" lengthAdjust="spacing" text-decoration="underline" textLength="98.2796" x="4435.1428" y="319.8359">name : STRING</text></g><g><rect fill="#F1F1F1" height="39.0679" style="stroke:#181818;stroke-width:0.5;" width="105.5957" x="5838.48" y="407.78"/><text fill="#000000" font-family="sans-serif" font-size="14" lengthAdjust="spacing" textLength="85.5957" x="5848.48" y="432.7459">Agent profile</text></g><g><ellipse cx="5773.2826" cy="315.5625" fill="#F1F1F1" rx="71.4626" ry="16.6925" style="stroke:#181818;stroke-width:0.5;"/><text fill="#000000" font-family="sans-serif" font-size="14" lengthAdjust="spacing" text-decoration="underline" textLength="98.2796" x="5724.1428" y="319.8359">name : STRING</text></g><g><rect fill="#F1F1F1" height="39.0679" style="stroke:#181818;stroke-width:0.5;" width="84.8058" x="8034.87" y="407.78"/><text fill="#000000" font-family="sans-serif" font-size="14" lengthAdjust="spacing" textLength="64.8058" x="8044.87" y="432.7459">Capability</text></g><g><ellipse cx="8007.2826" cy="315.5625" fill="#F1F1F1" rx="71.4626" ry="16.6925" style="stroke:#181818;stroke-width:0.5;"/><text fill="#000000" font-family="sans-serif" font-size="14" lengthAdjust="spacing" text-decoration="underline" textLength="98.2796" x="7958.1428" y="319.8359">name : STRING</text></g><g><polygon fill="#F1F1F1" points="729.95,164.4515,828.273,115.29,926.596,164.4515,828.273,213.613" style="stroke:#181818;stroke-width:0.5;stroke-linejoin:miter;stroke-miterlimit:10;"/><text fill="#000000" font-family="sans-serif" font-size="14" lengthAdjust="spacing" textLength="136.1495" x="760.1983" y="169.8835">selects active bundle</text></g><g><polygon fill="#F1F1F1" points="1494.47,164.453,1572.2761,125.55,1650.0822,164.453,1572.2761,203.3561" style="stroke:#181818;stroke-width:0.5;stroke-linejoin:miter;stroke-miterlimit:10;"/><text fill="#000000" font-family="sans-serif" font-size="14" lengthAdjust="spacing" textLength="95.1156" x="1524.7183" y="169.885">enables target</text></g><g><polygon fill="#F1F1F1" points="2608.52,164.447,2697.274,120.07,2786.0281,164.447,2697.274,208.824" style="stroke:#181818;stroke-width:0.5;stroke-linejoin:miter;stroke-miterlimit:10;"/><polygon fill="#F1F1F1" points="2618.52,164.447,2697.274,125.07,2776.0281,164.447,2697.274,203.824" style="stroke:#181818;stroke-width:0.5;stroke-linejoin:miter;stroke-miterlimit:10;"/><text fill="#000000" font-family="sans-serif" font-size="14" lengthAdjust="spacing" textLength="117.0116" x="2638.7683" y="169.879">contains question</text></g><g><polygon fill="#F1F1F1" points="4522.92,164.451,4604.2821,123.77,4685.6441,164.451,4604.2821,205.1321" style="stroke:#181818;stroke-width:0.5;stroke-linejoin:miter;stroke-miterlimit:10;"/><polygon fill="#F1F1F1" points="4532.92,164.451,4604.2821,128.77,4675.6441,164.451,4604.2821,200.1321" style="stroke:#181818;stroke-width:0.5;stroke-linejoin:miter;stroke-miterlimit:10;"/><text fill="#000000" font-family="sans-serif" font-size="14" lengthAdjust="spacing" textLength="102.2276" x="4553.1683" y="169.883">contains option</text></g><g><polygon fill="#F1F1F1" points="1809.01,164.453,1899.276,119.32,1989.5421,164.453,1899.276,209.586" style="stroke:#181818;stroke-width:0.5;stroke-linejoin:miter;stroke-miterlimit:10;"/><text fill="#000000" font-family="sans-serif" font-size="14" lengthAdjust="spacing" textLength="120.0355" x="1839.2583" y="169.885">defaults to bundle</text></g><g><polygon fill="#F1F1F1" points="3253.9,164.4475,3341.275,120.76,3428.6501,164.4475,3341.275,208.135" style="stroke:#181818;stroke-width:0.5;stroke-linejoin:miter;stroke-miterlimit:10;"/><text fill="#000000" font-family="sans-serif" font-size="14" lengthAdjust="spacing" textLength="114.2536" x="3284.1483" y="169.8795">defaults to target</text></g><g><polygon fill="#F1F1F1" points="2197.26,164.4485,2283.277,121.44,2369.2941,164.4485,2283.277,207.457" style="stroke:#181818;stroke-width:0.5;stroke-linejoin:miter;stroke-miterlimit:10;"/><text fill="#000000" font-family="sans-serif" font-size="14" lengthAdjust="spacing" textLength="111.5376" x="2227.5083" y="169.8805">overrides bundle</text></g><g><polygon fill="#F1F1F1" points="5257.15,164.453,5340.2761,122.89,5423.4021,164.453,5340.2761,206.0161" style="stroke:#181818;stroke-width:0.5;stroke-linejoin:miter;stroke-miterlimit:10;"/><text fill="#000000" font-family="sans-serif" font-size="14" lengthAdjust="spacing" textLength="105.7556" x="5287.3983" y="169.885">overrides target</text></g><g><polygon fill="#F1F1F1" points="2989.52,164.451,3065.2821,126.57,3141.0442,164.451,3065.2821,202.3321" style="stroke:#181818;stroke-width:0.5;stroke-linejoin:miter;stroke-miterlimit:10;"/><text fill="#000000" font-family="sans-serif" font-size="14" lengthAdjust="spacing" textLength="91.0276" x="3019.7683" y="169.883">selects profile</text></g><g><polygon fill="#F1F1F1" points="3719.6,164.45,3804.28,122.11,3888.9601,164.45,3804.28,206.79" style="stroke:#181818;stroke-width:0.5;stroke-linejoin:miter;stroke-miterlimit:10;"/><text fill="#000000" font-family="sans-serif" font-size="14" lengthAdjust="spacing" textLength="108.8636" x="3749.8483" y="169.882">selects workflow</text></g><g><polygon fill="#F1F1F1" points="7354.44,164.4505,7460.281,111.53,7566.1219,164.4505,7460.281,217.371" style="stroke:#181818;stroke-width:0.5;stroke-linejoin:miter;stroke-miterlimit:10;"/><text fill="#000000" font-family="sans-serif" font-size="14" lengthAdjust="spacing" textLength="151.1854" x="7384.6883" y="169.8825">recommends workflow</text></g><g><ellipse cx="7460.2816" cy="25.2823" fill="#F1F1F1" rx="84.4116" ry="19.2823" style="stroke:#181818;stroke-width:0.5;"/><text fill="#000000" font-family="sans-serif" font-size="14" lengthAdjust="spacing" textLength="131.9915" x="7394.2858" y="26.9659">advisory : BOOLEAN</text></g><g><polygon fill="#F1F1F1" points="6463.5,164.448,6581.2759,105.56,6699.0518,164.448,6581.2759,223.3359" style="stroke:#181818;stroke-width:0.5;stroke-linejoin:miter;stroke-miterlimit:10;"/><text fill="#000000" font-family="sans-serif" font-size="14" lengthAdjust="spacing" textLength="175.0553" x="6493.7483" y="169.8799">recommends agent profile</text></g><g><ellipse cx="6581.2816" cy="25.2823" fill="#F1F1F1" rx="84.4116" ry="19.2823" style="stroke:#181818;stroke-width:0.5;"/><text fill="#000000" font-family="sans-serif" font-size="14" lengthAdjust="spacing" textLength="131.9915" x="6515.2858" y="26.9659">advisory : BOOLEAN</text></g><g><polygon fill="#F1F1F1" points="7651.41,164.4515,7758.273,111.02,7865.1359,164.4515,7758.273,217.883" style="stroke:#181818;stroke-width:0.5;stroke-linejoin:miter;stroke-miterlimit:10;"/><text fill="#000000" font-family="sans-serif" font-size="14" lengthAdjust="spacing" textLength="153.2294" x="7681.6583" y="169.8835">recommends capability</text></g><g><ellipse cx="7758.2816" cy="25.2823" fill="#F1F1F1" rx="84.4116" ry="19.2823" style="stroke:#181818;stroke-width:0.5;"/><text fill="#000000" font-family="sans-serif" font-size="14" lengthAdjust="spacing" textLength="131.9915" x="7692.2858" y="26.9659">advisory : BOOLEAN</text></g><!--link PROJECT/name : STRING to PROJECT--><g class="link" data-entity-1="ent0002" data-entity-2="ent0001" data-link-type="association" data-source-line="13" id="lnk3"><path d="M1212.3,330.25 C1196.25,335.97 1177,342.32 1159.28,346.78 C996.44,387.81 796.69,413.48 718.7,422.59" fill="none" id="PROJECT/name : STRING-PROJECT" style="stroke:#181818;stroke-width:1;"/></g><!--link PROJECT/type : STRING to PROJECT--><g class="link" data-entity-1="ent0004" data-entity-2="ent0001" data-link-type="association" data-source-line="14" id="lnk5"><path d="M93,331.54 C114.27,346.07 148.89,367.38 182.28,377.78 C270.54,405.28 554.38,420.4 651.96,424.88" fill="none" id="PROJECT/type : STRING-PROJECT" style="stroke:#181818;stroke-width:1;"/></g><!--link PROJECT/description : STRING to PROJECT--><g class="link" data-entity-1="ent0006" data-entity-2="ent0001" data-link-type="association" data-source-line="15" id="lnk7"><path d="M399.63,332.17 C468.05,354.72 592.82,395.84 652.18,415.41" fill="none" id="PROJECT/description : STRING-PROJECT" style="stroke:#181818;stroke-width:1;"/></g><!--link PROJECT/languageProfile : STRING to PROJECT--><g class="link" data-entity-1="ent0008" data-entity-2="ent0001" data-link-type="association" data-source-line="16" id="lnk9"><path d="M592.99,337.46 C613.92,357.61 645.32,387.84 665.55,407.33" fill="none" id="PROJECT/languageProfile : STRING-PROJECT" style="stroke:#181818;stroke-width:1;"/></g><!--link PROJECT/runtimeProfile : STRING to PROJECT--><g class="link" data-entity-1="ent0010" data-entity-2="ent0001" data-link-type="association" data-source-line="17" id="lnk11"><path d="M778.37,336.69 C757.41,356.87 725.4,387.68 704.91,407.41" fill="none" id="PROJECT/runtimeProfile : STRING-PROJECT" style="stroke:#181818;stroke-width:1;"/></g><!--link PROJECT/architectureProfile : STRING to PROJECT--><g class="link" data-entity-1="ent0012" data-entity-2="ent0001" data-link-type="association" data-source-line="18" id="lnk13"><path d="M975.11,335.43 C900.84,358.72 777.16,397.5 718.33,415.95" fill="none" id="PROJECT/architectureProfile : STRING-PROJECT" style="stroke:#181818;stroke-width:1;"/></g><!--link SETUP/name : STRING to SETUP--><g class="link" data-entity-1="ent0015" data-entity-2="ent0014" data-link-type="association" data-source-line="22" id="lnk16"><path d="M2944.28,332.29 C2944.28,352.08 2944.28,386.07 2944.28,407.3" fill="none" id="SETUP/name : STRING-SETUP" style="stroke:#181818;stroke-width:1;"/></g><!--link SETUP/version : STRING to SETUP--><g class="link" data-entity-1="ent0017" data-entity-2="ent0014" data-link-type="association" data-source-line="23" id="lnk18"><path d="M3196.74,332.33 C3174.97,345.8 3141.94,364.99 3111.28,377.78 C3064.61,397.26 3007.51,412.03 2973.62,419.91" fill="none" id="SETUP/version : STRING-SETUP" style="stroke:#181818;stroke-width:1;"/></g><!--link SETUP/mode : STRING to SETUP--><g class="link" data-entity-1="ent0019" data-entity-2="ent0014" data-link-type="association" data-source-line="24" id="lnk20"><path d="M3366.33,330.17 C3350.44,335.75 3331.58,342 3314.28,346.78 C3188.88,381.42 3036.12,410.06 2973.34,421.25" fill="none" id="SETUP/mode : STRING-SETUP" style="stroke:#181818;stroke-width:1;"/></g><!--link SETUP/description : STRING to SETUP--><g class="link" data-entity-1="ent0021" data-entity-2="ent0014" data-link-type="association" data-source-line="25" id="lnk22"><path d="M2783.13,334.19 C2819.48,354.98 2879.45,389.26 2915.08,409.63" fill="none" id="SETUP/description : STRING-SETUP" style="stroke:#181818;stroke-width:1;"/></g><!--link SETUP_QUESTION/id : STRING to SETUP_QUESTION--><g class="link" data-entity-1="ent0024" data-entity-2="ent0023" data-link-type="association" data-source-line="29" id="lnk25"><path d="M3866.28,332.29 C3866.28,352.08 3866.28,386.07 3866.28,407.3" fill="none" id="SETUP_QUESTION/id : STRING-SETUP_QUESTION" style="stroke:#181818;stroke-width:1;"/></g><!--link SETUP_QUESTION/prompt : STRING to SETUP_QUESTION--><g class="link" data-entity-1="ent0026" data-entity-2="ent0023" data-link-type="association" data-source-line="30" id="lnk27"><path d="M4008.14,332.52 C3978.11,352.38 3926.89,386.24 3894.9,407.39" fill="none" id="SETUP_QUESTION/prompt : STRING-SETUP_QUESTION" style="stroke:#181818;stroke-width:1;"/></g><!--link SETUP_QUESTION/defaultOption : STRING to SETUP_QUESTION--><g class="link" data-entity-1="ent0028" data-entity-2="ent0023" data-link-type="association" data-source-line="31" id="lnk29"><path d="M3715.15,335.68 C3748.74,355.82 3801.32,387.36 3834.77,407.42" fill="none" id="SETUP_QUESTION/defaultOption : STRING-SETUP_QUESTION" style="stroke:#181818;stroke-width:1;"/></g><!--link SETUP_OPTION/value : STRING to SETUP_OPTION--><g class="link" data-entity-1="ent0031" data-entity-2="ent0030" data-link-type="association" data-source-line="35" id="lnk32"><path d="M5114.28,332.29 C5114.28,352.08 5114.28,386.07 5114.28,407.3" fill="none" id="SETUP_OPTION/value : STRING-SETUP_OPTION" style="stroke:#181818;stroke-width:1;"/></g><!--link SETUP_OPTION/label : STRING to SETUP_OPTION--><g class="link" data-entity-1="ent0033" data-entity-2="ent0030" data-link-type="association" data-source-line="36" id="lnk34"><path d="M5264.81,331.36 C5233.64,351.02 5178.55,385.77 5144.36,407.34" fill="none" id="SETUP_OPTION/label : STRING-SETUP_OPTION" style="stroke:#181818;stroke-width:1;"/></g><!--link SETUP_OPTION/classification : STRING to SETUP_OPTION--><g class="link" data-entity-1="ent0035" data-entity-2="ent0030" data-link-type="association" data-source-line="37" id="lnk36"><path d="M5428.3,332.4 C5358.53,353.27 5236.55,389.75 5166.94,410.57" fill="none" id="SETUP_OPTION/classification : STRING-SETUP_OPTION" style="stroke:#181818;stroke-width:1;"/></g><!--link SETUP_OPTION/reason : STRING to SETUP_OPTION--><g class="link" data-entity-1="ent0037" data-entity-2="ent0030" data-link-type="association" data-source-line="38" id="lnk38"><path d="M4881.37,332.1 C4904.94,345.25 4940.23,364.08 4972.28,377.78 C5001.26,390.17 5034.57,401.69 5061.64,410.4" fill="none" id="SETUP_OPTION/reason : STRING-SETUP_OPTION" style="stroke:#181818;stroke-width:1;"/></g><!--link BUNDLE/name : STRING to BUNDLE--><g class="link" data-entity-1="ent0040" data-entity-2="ent0039" data-link-type="association" data-source-line="42" id="lnk41"><path d="M1748.74,330.46 C1803.19,351.8 1906.65,392.36 1959.85,413.21" fill="none" id="BUNDLE/name : STRING-BUNDLE" style="stroke:#181818;stroke-width:1;"/></g><!--link BUNDLE/version : STRING to BUNDLE--><g class="link" data-entity-1="ent0042" data-entity-2="ent0039" data-link-type="association" data-source-line="43" id="lnk43"><path d="M1909.74,332.76 C1927.52,352.67 1957.65,386.42 1976.45,407.48" fill="none" id="BUNDLE/version : STRING-BUNDLE" style="stroke:#181818;stroke-width:1;"/></g><!--link BUNDLE/description : STRING to BUNDLE--><g class="link" data-entity-1="ent0044" data-entity-2="ent0039" data-link-type="association" data-source-line="44" id="lnk45"><path d="M2075.09,334.68 C2057.15,354.78 2028.35,387.03 2010.14,407.43" fill="none" id="BUNDLE/description : STRING-BUNDLE" style="stroke:#181818;stroke-width:1;"/></g><!--link PROFILE/name : STRING to PROFILE--><g class="link" data-entity-1="ent0047" data-entity-2="ent0046" data-link-type="association" data-source-line="48" id="lnk48"><path d="M6986.28,332.29 C6986.28,352.08 6986.28,386.07 6986.28,407.3" fill="none" id="PROFILE/name : STRING-PROFILE" style="stroke:#181818;stroke-width:1;"/></g><!--link PROFILE/version : STRING to PROFILE--><g class="link" data-entity-1="ent0049" data-entity-2="ent0046" data-link-type="association" data-source-line="49" id="lnk50"><path d="M7142.2,332.29 C7109.37,352.08 7053.02,386.07 7017.81,407.3" fill="none" id="PROFILE/version : STRING-PROFILE" style="stroke:#181818;stroke-width:1;"/></g><!--link PROFILE/description : STRING to PROFILE--><g class="link" data-entity-1="ent0051" data-entity-2="ent0046" data-link-type="association" data-source-line="50" id="lnk52"><path d="M6203.27,332.25 C6220.7,337.56 6240.73,343.08 6259.28,346.78 C6525.1,399.89 6853.19,419.73 6954.8,424.86" fill="none" id="PROFILE/description : STRING-PROFILE" style="stroke:#181818;stroke-width:1;"/></g><!--link PROFILE/recommendedLanguageProfile : STRING to PROFILE--><g class="link" data-entity-1="ent0053" data-entity-2="ent0046" data-link-type="association" data-source-line="51" id="lnk54"><path d="M6527.22,337.14 C6658.23,362.59 6873.79,404.46 6954.48,420.14" fill="none" id="PROFILE/recommendedLanguageProfile : STRING-PROFILE" style="stroke:#181818;stroke-width:1;"/></g><!--link PROFILE/recommendedRuntimeProfile : STRING to PROFILE--><g class="link" data-entity-1="ent0055" data-entity-2="ent0046" data-link-type="association" data-source-line="52" id="lnk56"><path d="M6800.14,343.27 C6848.92,365.03 6915.88,394.91 6954.77,412.26" fill="none" id="PROFILE/recommendedRuntimeProfile : STRING-PROFILE" style="stroke:#181818;stroke-width:1;"/></g><!--link WORKFLOW/name : STRING to WORKFLOW--><g class="link" data-entity-1="ent0058" data-entity-2="ent0057" data-link-type="association" data-source-line="56" id="lnk59"><path d="M7805.4,331.69 C7784.27,344.76 7752.35,363.7 7723.28,377.78 C7697.12,390.45 7666.76,402.54 7642.86,411.49" fill="none" id="WORKFLOW/name : STRING-WORKFLOW" style="stroke:#181818;stroke-width:1;"/></g><!--link TARGET_ADAPTER/name : STRING to TARGET_ADAPTER--><g class="link" data-entity-1="ent0061" data-entity-2="ent0060" data-link-type="association" data-source-line="60" id="lnk62"><path d="M4469.23,332.29 C4450.29,352.08 4417.78,386.07 4397.47,407.3" fill="none" id="TARGET_ADAPTER/name : STRING-TARGET_ADAPTER" style="stroke:#181818;stroke-width:1;"/></g><!--link AGENT_PROFILE/name : STRING to AGENT_PROFILE--><g class="link" data-entity-1="ent0064" data-entity-2="ent0063" data-link-type="association" data-source-line="64" id="lnk65"><path d="M5789.93,332.05 C5811.28,351.91 5848.25,386.3 5871.15,407.6" fill="none" id="AGENT_PROFILE/name : STRING-AGENT_PROFILE" style="stroke:#181818;stroke-width:1;"/></g><!--link CAPABILITY/name : STRING to CAPABILITY--><g class="link" data-entity-1="ent0067" data-entity-2="ent0066" data-link-type="association" data-source-line="68" id="lnk68"><path d="M8017.31,332.29 C8029.93,352.08 8051.61,386.07 8065.15,407.3" fill="none" id="CAPABILITY/name : STRING-CAPABILITY" style="stroke:#181818;stroke-width:1;"/></g><!--link RECOMMENDS_WORKFLOW/advisory : BOOLEAN to RECOMMENDS_WORKFLOW--><g class="link" data-entity-1="ent0080" data-entity-2="ent0079" data-link-type="association" data-source-line="102" id="lnk81"><path d="M7460.28,44.78 C7460.28,61.75 7460.28,87.7 7460.28,111.02" fill="none" id="RECOMMENDS_WORKFLOW/advisory : BOOLEAN-RECOMMENDS_WORKFLOW" style="stroke:#181818;stroke-width:1;"/></g><!--link PROFILE_RECOMMENDS_AGENT/advisory : BOOLEAN to PROFILE_RECOMMENDS_AGENT--><g class="link" data-entity-1="ent0083" data-entity-2="ent0082" data-link-type="association" data-source-line="106" id="lnk84"><path d="M6581.28,44.78 C6581.28,60.36 6581.28,83.51 6581.28,105.24" fill="none" id="PROFILE_RECOMMENDS_AGENT/advisory : BOOLEAN-PROFILE_RECOMMENDS_AGENT" style="stroke:#181818;stroke-width:1;"/></g><!--link PROFILE_RECOMMENDS_CAPABILITY/advisory : BOOLEAN to PROFILE_RECOMMENDS_CAPABILITY--><g class="link" data-entity-1="ent0086" data-entity-2="ent0085" data-link-type="association" data-source-line="110" id="lnk87"><path d="M7758.28,44.78 C7758.28,61.67 7758.28,87.48 7758.28,110.72" fill="none" id="PROFILE_RECOMMENDS_CAPABILITY/advisory : BOOLEAN-PROFILE_RECOMMENDS_CAPABILITY" style="stroke:#181818;stroke-width:1;"/></g><!--link PROJECT_SELECTS_BUNDLE to PROJECT--><g class="link" data-entity-1="ent0069" data-entity-2="ent0001" data-link-type="association" data-source-line="113" id="lnk88"><path d="M739.45,169.6 C587.86,178.73 289.35,206.4 225.28,284.34 C207.65,305.78 207.4,325.55 225.28,346.78 C280.22,412.04 555.82,423.75 652.06,425.86" fill="none" id="PROJECT_SELECTS_BUNDLE-PROJECT" style="stroke:#181818;stroke-width:1;"/><text fill="#000000" font-family="sans-serif" font-size="11" lengthAdjust="spacing" textLength="22.1318" x="226.28" y="320.3189">(1,1)</text></g><!--link PROJECT_SELECTS_BUNDLE to BUNDLE--><g class="link" data-entity-1="ent0069" data-entity-2="ent0039" data-link-type="association" data-source-line="114" id="lnk89"><path d="M917.56,169.26 C1024.61,177.48 1206,203.32 1337.28,284.34 C1368.01,303.31 1357.65,329.35 1389.28,346.78 C1488.97,401.72 1848.03,420.5 1959.82,425.09" fill="none" id="PROJECT_SELECTS_BUNDLE-BUNDLE" style="stroke:#181818;stroke-width:1;"/><text fill="#000000" font-family="sans-serif" font-size="11" lengthAdjust="spacing" textLength="24.1998" x="1390.28" y="320.3189">(0,N)</text></g><!--link PROJECT_ENABLES_TARGET to PROJECT--><g class="link" data-entity-1="ent0070" data-entity-2="ent0001" data-link-type="association" data-source-line="115" id="lnk90"><path d="M1556.98,196.1 C1534.2,238.12 1487.09,312.32 1423.28,346.78 C1298.83,413.99 845.23,424.42 718.42,426.03" fill="none" id="PROJECT_ENABLES_TARGET-PROJECT" style="stroke:#181818;stroke-width:1;"/><text fill="#000000" font-family="sans-serif" font-size="11" lengthAdjust="spacing" textLength="24.1998" x="1498.08" y="320.3189">(1,N)</text></g><!--link PROJECT_ENABLES_TARGET to TARGET_ADAPTER--><g class="link" data-entity-1="ent0070" data-entity-2="ent0060" data-link-type="association" data-source-line="116" id="lnk91"><path d="M1618.2,180.93 C1662.07,194.92 1730.35,214.61 1791.28,223.34 C2048.08,260.12 3881.64,195.24 4125.28,284.34 C4166.98,299.59 4165.41,323.58 4203.28,346.78 C4243.45,371.4 4292.54,392.95 4328.66,407.39" fill="none" id="PROJECT_ENABLES_TARGET-TARGET_ADAPTER" style="stroke:#181818;stroke-width:1;"/><text fill="#000000" font-family="sans-serif" font-size="11" lengthAdjust="spacing" textLength="24.1998" x="4204.28" y="320.3189">(0,N)</text></g><!--link HAS_QUESTION to SETUP--><g class="link" data-entity-1="ent0071" data-entity-2="ent0014" data-link-type="association" data-source-line="117" id="lnk92"><path d="M2656.56,188.66 C2600.61,223.45 2511.79,290.99 2557.28,346.78 C2602.68,402.47 2832.95,420.28 2915.1,424.91" fill="none" id="HAS_QUESTION-SETUP" style="stroke:#181818;stroke-width:2;"/><text fill="#000000" font-family="sans-serif" font-size="11" lengthAdjust="spacing" textLength="6.2919" x="2558.28" y="320.3189">1</text></g><!--link HAS_QUESTION to SETUP_QUESTION--><g class="link" data-entity-1="ent0071" data-entity-2="ent0023" data-link-type="association" data-source-line="118" id="lnk93"><path d="M2756.8,179.61 C2812.3,192.43 2897.53,211.11 2972.28,223.34 C3201.92,260.9 3279.72,189.65 3492.28,284.34 C3530.66,301.44 3526.18,327.04 3563.28,346.78 C3641.54,388.43 3742.98,409.28 3806.35,418.94" fill="none" id="HAS_QUESTION-SETUP_QUESTION" style="stroke:#181818;stroke-width:2;"/><text fill="#000000" font-family="sans-serif" font-size="11" lengthAdjust="spacing" textLength="8.3599" x="3564.28" y="320.3189">N</text></g><!--link HAS_OPTION to SETUP_QUESTION--><g class="link" data-entity-1="ent0072" data-entity-2="ent0023" data-link-type="association" data-source-line="119" id="lnk94"><path d="M4563.51,185.2 C4518.99,207.35 4446.19,245.32 4387.28,284.34 C4349.97,309.05 4349.08,328.39 4308.28,346.78 C4180.33,404.45 4013.79,420.34 3926.18,424.7" fill="none" id="HAS_OPTION-SETUP_QUESTION" style="stroke:#181818;stroke-width:2;"/><text fill="#000000" font-family="sans-serif" font-size="11" lengthAdjust="spacing" textLength="6.2919" x="4388.28" y="320.3189">1</text></g><!--link HAS_OPTION to SETUP_OPTION--><g class="link" data-entity-1="ent0072" data-entity-2="ent0030" data-link-type="association" data-source-line="120" id="lnk95"><path d="M4660.17,177.68 C4730.37,194.61 4852.94,229.46 4946.28,284.34 C4982.22,305.47 4984.53,319.76 5016.28,346.78 C5041.14,367.94 5070.26,391.41 5090.26,407.34" fill="none" id="HAS_OPTION-SETUP_OPTION" style="stroke:#181818;stroke-width:2;"/><text fill="#000000" font-family="sans-serif" font-size="11" lengthAdjust="spacing" textLength="8.3599" x="5017.28" y="320.3189">N</text></g><!--link DEFAULT_SELECTION_BUNDLE to SETUP--><g class="link" data-entity-1="ent0073" data-entity-2="ent0014" data-link-type="association" data-source-line="121" id="lnk96"><path d="M1963.73,177.74 C2056.09,196.22 2230.77,234.37 2374.28,284.34 C2437.85,306.48 2449.85,321.59 2512.28,346.78 C2550.34,362.14 2559.42,367.98 2599.28,377.78 C2714.4,406.08 2855.47,419.5 2915.28,424.23" fill="none" id="DEFAULT_SELECTION_BUNDLE-SETUP" style="stroke:#181818;stroke-width:1;"/><text fill="#000000" font-family="sans-serif" font-size="11" lengthAdjust="spacing" textLength="22.1318" x="2513.28" y="320.3189">(1,1)</text></g><!--link DEFAULT_SELECTION_BUNDLE to BUNDLE--><g class="link" data-entity-1="ent0073" data-entity-2="ent0039" data-link-type="association" data-source-line="122" id="lnk97"><path d="M1834.5,177.6 C1725.69,200.8 1524.94,257.21 1598.28,346.78 C1644.03,402.67 1872.99,420.14 1959.82,424.81" fill="none" id="DEFAULT_SELECTION_BUNDLE-BUNDLE" style="stroke:#181818;stroke-width:1;"/><text fill="#000000" font-family="sans-serif" font-size="11" lengthAdjust="spacing" textLength="24.1998" x="1599.28" y="320.3189">(0,N)</text></g><!--link DEFAULT_SELECTION_TARGET to SETUP--><g class="link" data-entity-1="ent0074" data-entity-2="ent0014" data-link-type="association" data-source-line="123" id="lnk98"><path d="M3293.36,184.66 C3243.53,205.66 3164.3,242.04 3102.28,284.34 C3068.11,307.64 3064.03,319.13 3033.28,346.78 C3010.17,367.57 2983.58,391.3 2965.53,407.39" fill="none" id="DEFAULT_SELECTION_TARGET-SETUP" style="stroke:#181818;stroke-width:1;"/><text fill="#000000" font-family="sans-serif" font-size="11" lengthAdjust="spacing" textLength="24.1998" x="3103.28" y="320.3189">(1,N)</text></g><!--link DEFAULT_SELECTION_TARGET to TARGET_ADAPTER--><g class="link" data-entity-1="ent0074" data-entity-2="ent0060" data-link-type="association" data-source-line="124" id="lnk99"><path d="M3403.63,177.38 C3475.39,190.66 3596.91,211.77 3702.28,223.34 C3757.82,229.44 4155.07,226.86 4204.28,253.34 C4249.97,277.93 4237.68,309.99 4274.28,346.78 C4297.5,370.13 4327.82,392.38 4349.91,407.37" fill="none" id="DEFAULT_SELECTION_TARGET-TARGET_ADAPTER" style="stroke:#181818;stroke-width:1;"/><text fill="#000000" font-family="sans-serif" font-size="11" lengthAdjust="spacing" textLength="24.1998" x="4275.28" y="320.3189">(0,N)</text></g><!--link OPTION_OVERRIDES_BUNDLE to SETUP_OPTION--><g class="link" data-entity-1="ent0075" data-entity-2="ent0030" data-link-type="association" data-source-line="125" id="lnk100"><path d="M2340.76,179.18 C2402.32,193.18 2503.07,214.14 2591.28,223.34 C2890.61,254.57 3644.51,242.59 3945.28,253.34 C4084.91,258.33 4448.25,221.95 4573.28,284.34 C4605.59,300.47 4593.91,328.87 4625.28,346.78 C4699.22,389 4951.31,413.49 5061.74,422.42" fill="none" id="OPTION_OVERRIDES_BUNDLE-SETUP_OPTION" style="stroke:#181818;stroke-width:1;"/><text fill="#000000" font-family="sans-serif" font-size="11" lengthAdjust="spacing" textLength="22.1318" x="4626.28" y="320.3189">(0,1)</text></g><!--link OPTION_OVERRIDES_BUNDLE to BUNDLE--><g class="link" data-entity-1="ent0075" data-entity-2="ent0039" data-link-type="association" data-source-line="126" id="lnk101"><path d="M2273.65,203.02 C2261.47,243.54 2236.79,307.52 2194.28,346.78 C2146.17,391.21 2070.25,412.03 2026.79,420.77" fill="none" id="OPTION_OVERRIDES_BUNDLE-BUNDLE" style="stroke:#181818;stroke-width:1;"/><text fill="#000000" font-family="sans-serif" font-size="11" lengthAdjust="spacing" textLength="24.1998" x="2240.73" y="320.3189">(0,N)</text></g><!--link OPTION_OVERRIDES_TARGET to SETUP_OPTION--><g class="link" data-entity-1="ent0076" data-entity-2="ent0030" data-link-type="association" data-source-line="127" id="lnk102"><path d="M5393.56,179.76 C5484.53,206.68 5653.91,269.22 5588.28,346.78 C5534.71,410.08 5278.62,423.03 5166.75,425.66" fill="none" id="OPTION_OVERRIDES_TARGET-SETUP_OPTION" style="stroke:#181818;stroke-width:1;"/><text fill="#000000" font-family="sans-serif" font-size="11" lengthAdjust="spacing" textLength="24.1998" x="5604" y="320.3189">(0,N)</text></g><!--link OPTION_OVERRIDES_TARGET to TARGET_ADAPTER--><g class="link" data-entity-1="ent0076" data-entity-2="ent0060" data-link-type="association" data-source-line="128" id="lnk103"><path d="M5265.25,168.92 C5147.5,176.79 4914.4,202.3 4736.28,284.34 C4695.63,303.06 4697.1,326.36 4657.28,346.78 C4586.47,383.08 4496.78,404.92 4438.72,416.29" fill="none" id="OPTION_OVERRIDES_TARGET-TARGET_ADAPTER" style="stroke:#181818;stroke-width:1;"/><text fill="#000000" font-family="sans-serif" font-size="11" lengthAdjust="spacing" textLength="24.1998" x="4737.28" y="320.3189">(0,N)</text></g><!--link SELECTS_PROFILE to BUNDLE--><g class="link" data-entity-1="ent0077" data-entity-2="ent0039" data-link-type="association" data-source-line="129" id="lnk104"><path d="M3015.31,177.83 C2962.77,190.54 2877.6,210.24 2803.28,223.34 C2599.74,259.22 2529.83,197.52 2342.28,284.34 C2304.74,301.71 2309.06,326.03 2273.28,346.78 C2234.86,369.06 2220.89,365.25 2178.28,377.78 C2125.71,393.24 2064.06,408.93 2026.86,418.14" fill="none" id="SELECTS_PROFILE-BUNDLE" style="stroke:#181818;stroke-width:1;"/><text fill="#000000" font-family="sans-serif" font-size="11" lengthAdjust="spacing" textLength="22.1318" x="2343.28" y="320.3189">(1,1)</text></g><!--link SELECTS_PROFILE to PROFILE--><g class="link" data-entity-1="ent0077" data-entity-2="ent0046" data-link-type="association" data-source-line="130" id="lnk105"><path d="M3105.14,182.8 C3139.23,196.69 3189.98,215.16 3236.28,223.34 C3523.69,274.1 5597.17,162.28 5862.28,284.34 C5896.14,299.93 5884.83,330.33 5918.28,346.78 C6013.48,393.6 6787.93,420.16 6954.71,425.37" fill="none" id="SELECTS_PROFILE-PROFILE" style="stroke:#181818;stroke-width:1;"/><text fill="#000000" font-family="sans-serif" font-size="11" lengthAdjust="spacing" textLength="24.1998" x="5919.28" y="320.3189">(0,N)</text></g><!--link SELECTS_WORKFLOW to BUNDLE--><g class="link" data-entity-1="ent0078" data-entity-2="ent0039" data-link-type="association" data-source-line="131" id="lnk106"><path d="M3743.69,176.88 C3672.67,189.9 3551.32,210.97 3446.28,223.34 C3264.59,244.74 2789.45,203.62 2625.28,284.34 C2591.82,300.79 2602.2,329.29 2569.28,346.78 C2473.89,397.47 2135.48,418.99 2027,424.69" fill="none" id="SELECTS_WORKFLOW-BUNDLE" style="stroke:#181818;stroke-width:1;"/><text fill="#000000" font-family="sans-serif" font-size="11" lengthAdjust="spacing" textLength="22.1318" x="2626.28" y="320.3189">(1,1)</text></g><!--link SELECTS_WORKFLOW to WORKFLOW--><g class="link" data-entity-1="ent0078" data-entity-2="ent0057" data-link-type="association" data-source-line="132" id="lnk107"><path d="M3873.33,172.57 C3998.94,185.21 4273.26,211.35 4505.28,223.34 C4666.38,231.67 7255.55,232.42 7408.28,284.34 C7446.38,297.29 7537.15,371.78 7579.2,407.38" fill="none" id="SELECTS_WORKFLOW-WORKFLOW" style="stroke:#181818;stroke-width:1;"/><text fill="#000000" font-family="sans-serif" font-size="11" lengthAdjust="spacing" textLength="24.1998" x="7504.76" y="320.3189">(0,N)</text></g><!--link RECOMMENDS_WORKFLOW to PROFILE--><g class="link" data-entity-1="ent0079" data-entity-2="ent0046" data-link-type="association" data-source-line="133" id="lnk108"><path d="M7435.15,205.09 C7407.99,245.27 7361.39,307.03 7308.28,346.78 C7218.84,413.71 7080.04,424.88 7018.05,426.36" fill="none" id="RECOMMENDS_WORKFLOW-PROFILE" style="stroke:#181818;stroke-width:1;"/><text fill="#000000" font-family="sans-serif" font-size="11" lengthAdjust="spacing" textLength="24.1998" x="7375.14" y="320.3189">(0,N)</text></g><!--link RECOMMENDS_WORKFLOW to WORKFLOW--><g class="link" data-entity-1="ent0079" data-entity-2="ent0057" data-link-type="association" data-source-line="134" id="lnk109"><path d="M7493.25,201.31 C7506.22,216.59 7520.53,235.08 7531.28,253.34 C7562.17,305.83 7585.44,374.51 7595.62,407.3" fill="none" id="RECOMMENDS_WORKFLOW-WORKFLOW" style="stroke:#181818;stroke-width:1;"/><text fill="#000000" font-family="sans-serif" font-size="11" lengthAdjust="spacing" textLength="24.1998" x="7575.09" y="320.3189">(0,N)</text></g><!--link PROFILE_RECOMMENDS_AGENT to PROFILE--><g class="link" data-entity-1="ent0082" data-entity-2="ent0046" data-link-type="association" data-source-line="135" id="lnk110"><path d="M6692.37,168.21 C6866.16,175.14 7189.91,199.41 7261.28,284.34 C7279.13,305.59 7277.95,324.6 7261.28,346.78 C7231.75,386.06 7083.75,412.11 7017.93,421.94" fill="none" id="PROFILE_RECOMMENDS_AGENT-PROFILE" style="stroke:#181818;stroke-width:1;"/><text fill="#000000" font-family="sans-serif" font-size="11" lengthAdjust="spacing" textLength="24.1998" x="7275.23" y="320.3189">(0,N)</text></g><!--link PROFILE_RECOMMENDS_AGENT to AGENT_PROFILE--><g class="link" data-entity-1="ent0082" data-entity-2="ent0063" data-link-type="association" data-source-line="136" id="lnk111"><path d="M6473.43,169.95 C6356.74,178.91 6168.46,205.52 6027.28,284.34 C5971.54,315.45 5924.67,376.87 5903.45,407.71" fill="none" id="PROFILE_RECOMMENDS_AGENT-AGENT_PROFILE" style="stroke:#181818;stroke-width:1;"/><text fill="#000000" font-family="sans-serif" font-size="11" lengthAdjust="spacing" textLength="24.1998" x="6028.28" y="320.3189">(0,N)</text></g><!--link PROFILE_RECOMMENDS_CAPABILITY to PROFILE--><g class="link" data-entity-1="ent0085" data-entity-2="ent0046" data-link-type="association" data-source-line="137" id="lnk112"><path d="M7736.37,207.14 C7711.47,249.93 7666.61,314.65 7608.28,346.78 C7504.81,403.77 7129.83,421.29 7017.98,425.31" fill="none" id="PROFILE_RECOMMENDS_CAPABILITY-PROFILE" style="stroke:#181818;stroke-width:1;"/><text fill="#000000" font-family="sans-serif" font-size="11" lengthAdjust="spacing" textLength="24.1998" x="7682.66" y="320.3189">(0,N)</text></g><!--link PROFILE_RECOMMENDS_CAPABILITY to CAPABILITY--><g class="link" data-entity-1="ent0085" data-entity-2="ent0066" data-link-type="association" data-source-line="138" id="lnk113"><path d="M7854.42,170.31 C7933.79,180.01 8041.9,207.56 8096.28,284.34 C8122.58,321.48 8101.57,378.07 8087.45,407.33" fill="none" id="PROFILE_RECOMMENDS_CAPABILITY-CAPABILITY" style="stroke:#181818;stroke-width:1;"/><text fill="#000000" font-family="sans-serif" font-size="11" lengthAdjust="spacing" textLength="24.1998" x="8109.83" y="320.3189">(0,N)</text></g><?plantuml-src xLVVSvj647xdhxZnPARjJ9A9NpEnnyZ2hbe5L8JhwPFc32VfQdH7ZqEoqkd_tZtWu4204a_UWbvixdQ__S5-k-nDAh6GuPOmo_e9sHl290tH8nVFwvWVq3rXH639XRfT4fab2BC8fIGceQISeP0pILuaN2k9kooEaOAGbAJeYSISRP3aI6ufFFACHIJIAk-LWa_MH10MabeB2u8YigOCH74cjrnGYINTa_Y8I9oImnOqG3bNEAABXU1_WpCN2ATeuNk_ERS1-jT2YE4TGH_HCl1dxZtwzEcP7A-luLmUa_eSdYEIXe8cUJJ6SOpP9iCR0l1h6ZUGTbaiQOubCd1YDoo3HRYb4ZpCn8cWzLyTHvxTF8gb4pmi1cFO4v6s_Dtnw7nORNFeduoaIgIsk_hZmLa6Cyy5SmU2dw-lSqzerEL78lWkaKspQmoXU-SCywHbrbkS6jtZEEkCFyPGMwRPCCPfIjSqnEttA0XEUpoPG3t69FTXyk1EvywtvlnSZilNhKlpRlQTJAYeGhxR4SMd-LSLQYtldwrP8mBT2F8G7Zt_zxkvzmYYGlEsV5FT4Hb00HOR8X6ES2A9oE42sxztWfKzjHU1uxy6D6zNgWYhBDltZXkiTAvV0NcB4_n4O_W_nxkr5_PaDfy5VtqBc21nNeVfbYReecYMqDX2rSNGKrrrPRjQBPqv_5ckgYeymI0CFyNG76MUneQouzgJkRDS5UdiKbOD5rEMDjd-gxqqkKuZbOBraR9D7bu_Ya5TXL4Hzon2sHjIDH6CB4oTE_jXhhC0M0DvC26CN9n2z6U30yi4-9gQFXH1hBm_7T-VJPsXLr7h6mwSwFVRr-LWbgqkWBf9zAeTJ4PglOgP7OeLzLkwldFhVVxikDE6EiohQ4zJBevGsHFFcpksEuY9JpXO1h4o3EIqV0rwsAHZ1xJ1q7xy7gAz-_doxUKlxpIL-iK-l7L1h7YqUeYdmDmEi1En0gpP_Qm66wykhugfs3fshrepsZ88M2brtrQwnO7LopgTbCA10R56KdePgDFI1pUSbZvUAl7AIHtIaB3XQXzNjTWmvh2_RIBhP9QcJwy_w9fHpzO9dtlqZVi2G1zONQnkMncIgO1wMTn6EolOcCdMC8M_0hn3kZvIEyMCxR6Wc46pP5mYyf880X-7C3_Hqn4wYeWemwgb80px2VceTC1BXYY33GHkli3caHHR1T9jbxp0-8OD11IQW_pzeBgUsqgD2_X8X-Mc61jfgUZWS0jMp8znjCLDW-NKAoTlgLXyHuTRJaDbuC105EGBh_8jhJ1KBskbelxogzfiqNhXUGVplUgW87q3byLgU6EiYVbltBx6xMlSliRjQzo-nkrhtBx6xMlSliRjQzo-VlZjg_ZLUyERygFgpVy0?></g></svg>