<svg xmlns="http://www.w3.org/2000/svg" xmlns:xlink="http://www.w3.org/1999/xlink" contentStyleType="text/css" data-diagram-type="CHEN_EER" height="265px" preserveAspectRatio="none" style="width:3401px;height:265px;background:#FFFFFF;" version="1.1" viewBox="0 0 3401 265" width="3401px" zoomAndPan="magnify"><?plantuml 1.2026.6?><defs/><g><g><rect fill="#F1F1F1" height="39.0679" style="stroke:#181818;stroke-width:0.5;" width="82.6497" x="392" y="225"/><text fill="#000000" font-family="sans-serif" font-size="14" lengthAdjust="spacing" textLength="62.6497" x="402" y="249.9659">Workflow</text></g><g><ellipse cx="611.4626" cy="168.1925" fill="#F1F1F1" rx="71.4626" ry="16.6925" style="stroke:#181818;stroke-width:0.5;"/><text fill="#000000" font-family="sans-serif" font-size="14" lengthAdjust="spacing" text-decoration="underline" textLength="98.2796" x="562.3228" y="172.4659">name : STRING</text></g><g><ellipse cx="81.4128" cy="167.9826" fill="#F1F1F1" rx="75.4128" ry="17.4826" style="stroke:#181818;stroke-width:0.5;"/><text fill="#000000" font-family="sans-serif" font-size="14" lengthAdjust="spacing" textLength="109.0176" x="26.904" y="171.4659">version : STRING</text></g><g><ellipse cx="371.4967" cy="167.9993" fill="#F1F1F1" rx="87.9967" ry="19.9993" style="stroke:#181818;stroke-width:0.5;"/><text fill="#000000" font-family="sans-serif" font-size="14" lengthAdjust="spacing" textLength="140.7414" x="301.126" y="168.9659">failClosed : BOOLEAN</text></g><g><rect fill="#F1F1F1" height="39.0679" style="stroke:#181818;stroke-width:0.5;" width="118.8536" x="1168" y="225"/><rect fill="#F1F1F1" height="33.0679" style="stroke:#181818;stroke-width:0.5;" width="112.8536" x="1171" y="228"/><text fill="#000000" font-family="sans-serif" font-size="14" lengthAdjust="spacing" textLength="98.8536" x="1178" y="249.9659">Workflow state</text></g><g><ellipse cx="1053.4626" cy="168.1925" fill="#F1F1F1" rx="71.4626" ry="16.6925" style="stroke:#181818;stroke-width:0.5;"/><text fill="#000000" font-family="sans-serif" font-size="14" lengthAdjust="spacing" text-decoration="underline" textLength="98.2796" x="1004.3228" y="172.4659">name : STRING</text></g><g><ellipse cx="1227.5194" cy="167.8039" fill="#F1F1F1" rx="84.5194" ry="19.3039" style="stroke:#181818;stroke-width:0.5;"/><text fill="#000000" font-family="sans-serif" font-size="14" lengthAdjust="spacing" textLength="132.2575" x="1161.3907" y="169.4659">terminal : BOOLEAN</text></g><g><rect fill="#F1F1F1" height="39.0679" style="stroke:#181818;stroke-width:0.5;" width="86.1777" x="1605.5" y="225"/><rect fill="#F1F1F1" height="33.0679" style="stroke:#181818;stroke-width:0.5;" width="80.1777" x="1608.5" y="228"/><text fill="#000000" font-family="sans-serif" font-size="14" lengthAdjust="spacing" textLength="66.1777" x="1615.5" y="249.9659">Transition</text></g><g><ellipse cx="1793.6257" cy="167.9831" fill="#F1F1F1" rx="54.6257" ry="16.4831" style="stroke:#181818;stroke-width:0.5;"/><text fill="#000000" font-family="sans-serif" font-size="14" lengthAdjust="spacing" text-decoration="underline" textLength="73.0097" x="1757.1208" y="172.4659">id : STRING</text></g><g><ellipse cx="1937.6468" cy="168.1294" fill="#F1F1F1" rx="71.1468" ry="16.6294" style="stroke:#181818;stroke-width:0.5;"/><text fill="#000000" font-family="sans-serif" font-size="14" lengthAdjust="spacing" textLength="97.3976" x="1888.948" y="172.4659">event : STRING</text></g><g><rect fill="#F1F1F1" height="39.0679" style="stroke:#181818;stroke-width:0.5;" width="50.9959" x="2721" y="225"/><rect fill="#F1F1F1" height="33.0679" style="stroke:#181818;stroke-width:0.5;" width="44.9959" x="2724" y="228"/><text fill="#000000" font-family="sans-serif" font-size="14" lengthAdjust="spacing" textLength="30.9959" x="2731" y="249.9659">Gate</text></g><g><ellipse cx="2512.4626" cy="168.1925" fill="#F1F1F1" rx="71.4626" ry="16.6925" style="stroke:#181818;stroke-width:0.5;"/><text fill="#000000" font-family="sans-serif" font-size="14" lengthAdjust="spacing" text-decoration="underline" textLength="98.2796" x="2463.3228" y="172.4659">name : STRING</text></g><g><ellipse cx="2686.6046" cy="167.8209" fill="#F1F1F1" rx="84.6046" ry="19.3209" style="stroke:#181818;stroke-width:0.5;"/><text fill="#000000" font-family="sans-serif" font-size="14" lengthAdjust="spacing" textLength="132.4675" x="2620.3709" y="169.4659">blocking : BOOLEAN</text></g><g><rect fill="#F1F1F1" height="39.0679" style="stroke:#181818;stroke-width:0.5;" width="102.6837" x="2118" y="225"/><text fill="#000000" font-family="sans-serif" font-size="14" lengthAdjust="spacing" textLength="82.6837" x="2128" y="249.9659">Role binding</text></g><g><ellipse cx="2232.5136" cy="167.8027" fill="#F1F1F1" rx="82.0136" ry="18.8027" style="stroke:#181818;stroke-width:0.5;"/><text fill="#000000" font-family="sans-serif" font-size="14" lengthAdjust="spacing" text-decoration="underline" textLength="126.0275" x="2169.4998" y="169.9659">roleName : STRING</text></g><g><rect fill="#F1F1F1" height="39.0679" style="stroke:#181818;stroke-width:0.5;" width="84.8058" x="2982" y="225"/><text fill="#000000" font-family="sans-serif" font-size="14" lengthAdjust="spacing" textLength="64.8058" x="2992" y="249.9659">Capability</text></g><g><ellipse cx="3115.4626" cy="168.1925" fill="#F1F1F1" rx="71.4626" ry="16.6925" style="stroke:#181818;stroke-width:0.5;"/><text fill="#000000" font-family="sans-serif" font-size="14" lengthAdjust="spacing" text-decoration="underline" textLength="98.2796" x="3066.3228" y="172.4659">name : STRING</text></g><g><rect fill="#F1F1F1" height="39.0679" style="stroke:#181818;stroke-width:0.5;" width="125.7836" x="3259.5" y="225"/><text fill="#000000" font-family="sans-serif" font-size="14" lengthAdjust="spacing" textLength="105.7836" x="3269.5" y="249.9659">Artifact contract</text></g><g><ellipse cx="3271.2773" cy="167.9831" fill="#F1F1F1" rx="66.2773" ry="16.4831" style="stroke:#181818;stroke-width:0.5;"/><text fill="#000000" font-family="sans-serif" font-size="14" lengthAdjust="spacing" text-decoration="underline" textLength="89.4876" x="3226.5335" y="172.4659">type : STRING</text></g><g><polygon fill="#F1F1F1" points="180.5,61.5501,237.6002,33,294.7003,61.5501,237.6002,90.1002" style="stroke:#181818;stroke-width:0.5;stroke-linejoin:miter;stroke-miterlimit:10;"/><text fill="#000000" font-family="sans-serif" font-size="14" lengthAdjust="spacing" textLength="53.7038" x="210.7483" y="66.9821">starts at</text></g><g><polygon fill="#F1F1F1" points="613,61.681,701.362,17.5,789.7241,61.681,701.362,105.862" style="stroke:#181818;stroke-width:0.5;stroke-linejoin:miter;stroke-miterlimit:10;"/><text fill="#000000" font-family="sans-serif" font-size="14" lengthAdjust="spacing" textLength="116.2276" x="643.2483" y="67.113">defaults failure to</text></g><g><polygon fill="#F1F1F1" points="399.5,61.605,475.7101,23.5,551.9202,61.605,475.7101,99.7101" style="stroke:#181818;stroke-width:0.5;stroke-linejoin:miter;stroke-miterlimit:10;"/><polygon fill="#F1F1F1" points="409.5,61.605,475.7101,28.5,541.9202,61.605,475.7101,94.7101" style="stroke:#181818;stroke-width:0.5;stroke-linejoin:miter;stroke-miterlimit:10;"/><text fill="#000000" font-family="sans-serif" font-size="14" lengthAdjust="spacing" textLength="91.9237" x="429.7483" y="67.037">contains state</text></g><g><polygon fill="#F1F1F1" points="945,61.326,1036.652,15.5,1128.3041,61.326,1036.652,107.152" style="stroke:#181818;stroke-width:0.5;stroke-linejoin:miter;stroke-miterlimit:10;"/><polygon fill="#F1F1F1" points="955,61.326,1036.652,20.5,1118.3041,61.326,1036.652,102.152" style="stroke:#181818;stroke-width:0.5;stroke-linejoin:miter;stroke-miterlimit:10;"/><text fill="#000000" font-family="sans-serif" font-size="14" lengthAdjust="spacing" textLength="122.8075" x="975.2483" y="66.758">contains transition</text></g><g><polygon fill="#F1F1F1" points="1321,61.3626,1387.7251,28,1454.4503,61.3626,1387.7251,94.7251" style="stroke:#181818;stroke-width:0.5;stroke-linejoin:miter;stroke-miterlimit:10;"/><text fill="#000000" font-family="sans-serif" font-size="14" lengthAdjust="spacing" textLength="72.9538" x="1351.2483" y="66.7945">starts from</text></g><g><polygon fill="#F1F1F1" points="1511.5,61.5551,1571.6101,31.5,1631.7203,61.5551,1571.6101,91.6101" style="stroke:#181818;stroke-width:0.5;stroke-linejoin:miter;stroke-miterlimit:10;"/><text fill="#000000" font-family="sans-serif" font-size="14" lengthAdjust="spacing" textLength="59.7238" x="1541.7483" y="66.9871">routes to</text></g><g><polygon fill="#F1F1F1" points="2215,61.6906,2273.3812,32.5,2331.7623,61.6906,2273.3812,90.8812" style="stroke:#181818;stroke-width:0.5;stroke-linejoin:miter;stroke-miterlimit:10;"/><polygon fill="#F1F1F1" points="2225,61.6906,2273.3812,37.5,2321.7623,61.6906,2273.3812,85.8812" style="stroke:#181818;stroke-width:0.5;stroke-linejoin:miter;stroke-miterlimit:10;"/><text fill="#000000" font-family="sans-serif" font-size="14" lengthAdjust="spacing" textLength="56.2658" x="2245.2483" y="67.1226">has gate</text></g><g><polygon fill="#F1F1F1" points="1954,61.291,2052.582,12,2151.164,61.291,2052.582,110.582" style="stroke:#181818;stroke-width:0.5;stroke-linejoin:miter;stroke-miterlimit:10;"/><text fill="#000000" font-family="sans-serif" font-size="14" lengthAdjust="spacing" textLength="136.6675" x="1984.2483" y="66.723">binds workflow state</text></g><g><polygon fill="#F1F1F1" points="1721.5,61.559,1810.618,17,1899.7361,61.559,1810.618,106.118" style="stroke:#181818;stroke-width:0.5;stroke-linejoin:miter;stroke-miterlimit:10;"/><text fill="#000000" font-family="sans-serif" font-size="14" lengthAdjust="spacing" textLength="117.7395" x="1751.7483" y="66.991">controls workflow</text></g><g><polygon fill="#F1F1F1" points="2507.5,61.5956,2571.6911,29.5,2635.8823,61.5956,2571.6911,93.6911" style="stroke:#181818;stroke-width:0.5;stroke-linejoin:miter;stroke-miterlimit:10;"/><text fill="#000000" font-family="sans-serif" font-size="14" lengthAdjust="spacing" textLength="67.8857" x="2537.7483" y="67.0275">owns gate</text></g><g><polygon fill="#F1F1F1" points="2810.5,61.4375,2901.375,16,2992.2501,61.4375,2901.375,106.875" style="stroke:#181818;stroke-width:0.5;stroke-linejoin:miter;stroke-miterlimit:10;"/><text fill="#000000" font-family="sans-serif" font-size="14" lengthAdjust="spacing" textLength="121.2535" x="2840.7483" y="66.8695">requires capability</text></g><g><polygon fill="#F1F1F1" points="3150.5,61.4545,3233.4091,20,3316.3181,61.4545,3233.4091,102.9091" style="stroke:#181818;stroke-width:0.5;stroke-linejoin:miter;stroke-miterlimit:10;"/><text fill="#000000" font-family="sans-serif" font-size="14" lengthAdjust="spacing" textLength="105.3216" x="3180.7483" y="66.8865">requires artifact</text></g><g class="link" data-entity-1="ent0002" data-entity-2="ent0001" data-link-type="association" id="lnk3"><path d="M574.1854,184.6176 C545.2333,196.7352 505.1141,213.5267 475.1242,226.0786" fill="none" style="stroke:#181818;stroke-width:1;"/></g><g class="link" data-entity-1="ent0004" data-entity-2="ent0001" data-link-type="association" id="lnk5"><path d="M118.5345,185.656 C136.6023,193.1848 158.8471,201.5873 179.5,207 C252.7611,226.2002 340.731,235.9959 391.5679,240.4105" fill="none" style="stroke:#181818;stroke-width:1;"/></g><g class="link" data-entity-1="ent0006" data-entity-2="ent0001" data-link-type="association" id="lnk7"><path d="M387.4665,188.1856 C396.8669,199.4812 408.7007,213.7009 418.016,224.8942" fill="none" style="stroke:#181818;stroke-width:1;"/></g><g class="link" data-entity-1="ent0009" data-entity-2="ent0008" data-link-type="association" id="lnk10"><path d="M1089.9761,184.6176 C1117.3807,196.3512 1155.0206,212.4671 1183.9949,224.8728" fill="none" style="stroke:#181818;stroke-width:1;"/></g><g class="link" data-entity-1="ent0011" data-entity-2="ent0008" data-link-type="association" id="lnk12"><path d="M1227.5,187.7995 C1227.5,199.1793 1227.5,213.6328 1227.5,224.9646" fill="none" style="stroke:#181818;stroke-width:1;"/></g><g class="link" data-entity-1="ent0014" data-entity-2="ent0013" data-link-type="association" id="lnk15"><path d="M1766.1559,184.5162 C1753.5591,191.5459 1738.3603,199.8621 1724.5,207 C1712.7883,213.0314 1699.9181,219.3332 1688.1515,224.9699" fill="none" style="stroke:#181818;stroke-width:1;"/></g><g class="link" data-entity-1="ent0016" data-entity-2="ent0013" data-link-type="association" id="lnk17"><path d="M1877.2679,184.527 C1821.8505,198.8127 1741.0154,219.6509 1691.7485,232.3512" fill="none" style="stroke:#181818;stroke-width:1;"/></g><g class="link" data-entity-1="ent0019" data-entity-2="ent0018" data-link-type="association" id="lnk20"><path d="M2561.2692,184.527 C2609.8904,200.0068 2682.6762,223.18 2720.922,235.3566" fill="none" style="stroke:#181818;stroke-width:1;"/></g><g class="link" data-entity-1="ent0021" data-entity-2="ent0018" data-link-type="association" id="lnk22"><path d="M2701.6405,187.7995 C2710.8055,199.1793 2722.4459,213.6328 2731.5722,224.9646" fill="none" style="stroke:#181818;stroke-width:1;"/></g><g class="link" data-entity-1="ent0024" data-entity-2="ent0023" data-link-type="association" id="lnk25"><path d="M2217.2495,187.0344 C2207.5628,198.4892 2195.053,213.2826 2185.268,224.8537" fill="none" style="stroke:#181818;stroke-width:1;"/></g><g class="link" data-entity-1="ent0027" data-entity-2="ent0026" data-link-type="association" id="lnk28"><path d="M3096.2012,184.7995 C3081.906,196.5028 3062.3765,212.4912 3047.309,224.8267" fill="none" style="stroke:#181818;stroke-width:1;"/></g><g class="link" data-entity-1="ent0030" data-entity-2="ent0029" data-link-type="association" id="lnk31"><path d="M3282.3158,184.7995 C3290.3274,196.5028 3301.2725,212.4912 3309.7169,224.8267" fill="none" style="stroke:#181818;stroke-width:1;"/></g><g class="link" data-entity-1="ent0032" data-entity-2="ent0001" data-link-type="association" id="lnk44"><path d="M225.8811,90.1182 C216.3755,117.4819 207.459,159.3404 227.5,188 C246.2318,214.7873 337.0554,231.0191 391.6589,238.5172" fill="none" style="stroke:#181818;stroke-width:1;"/><text fill="#000000" font-family="sans-serif" font-size="11" lengthAdjust="spacing" textLength="22.1318" x="229.5" y="172.7589">(1,1)</text></g><g class="link" data-entity-1="ent0032" data-entity-2="ent0008" data-link-type="association" id="lnk45"><path d="M294.5258,83.6076 C322.994,93.3629 358.176,104.2554 390.5,111 C544.9226,143.2211 605.6692,71.2718 743.5,148 C763.1519,158.9399 754.9492,176.8806 774.5,188 C834.4462,222.0941 860.0501,198.5995 928.5,207 C1011.549,217.1922 1107.5836,228.902 1167.9308,236.251" fill="none" style="stroke:#181818;stroke-width:1;"/><text fill="#000000" font-family="sans-serif" font-size="11" lengthAdjust="spacing" textLength="22.1318" x="776.5" y="172.7589">(0,1)</text></g><g class="link" data-entity-1="ent0033" data-entity-2="ent0001" data-link-type="association" id="lnk46"><path d="M612.7265,89.7199 C576.7821,103.4995 536.3416,122.7481 504.5,148 C490.2551,159.2969 462.0383,200.1992 445.794,224.66" fill="none" style="stroke:#181818;stroke-width:1;"/><text fill="#000000" font-family="sans-serif" font-size="11" lengthAdjust="spacing" textLength="22.1318" x="506.5" y="172.7589">(1,1)</text></g><g class="link" data-entity-1="ent0033" data-entity-2="ent0008" data-link-type="association" id="lnk47"><path d="M790.1563,97.2651 C808.028,106.2493 826.0504,116.8692 841.5,129 C868.0875,149.8763 860.2535,171.0483 889.5,188 C935.7397,214.8012 1083.6833,231.3277 1167.7116,238.795" fill="none" style="stroke:#181818;stroke-width:1;"/><text fill="#000000" font-family="sans-serif" font-size="11" lengthAdjust="spacing" textLength="22.1318" x="891.5" y="172.7589">(0,1)</text></g><g class="link" data-entity-1="ent0034" data-entity-2="ent0001" data-link-type="association" id="lnk48"><path d="M399.3675,83.5517 C345.626,100.1291 280.4567,124.3171 264.5,148 C254.5663,162.7435 254.0731,173.6011 264.5,188 C293.3896,227.895 351.8837,239.6215 391.8778,242.7933" fill="none" style="stroke:#181818;stroke-width:2;"/><text fill="#000000" font-family="sans-serif" font-size="11" lengthAdjust="spacing" textLength="6.2919" x="266.5" y="172.7589">1</text></g><g class="link" data-entity-1="ent0034" data-entity-2="ent0008" data-link-type="association" id="lnk49"><path d="M551.6474,95.053 C568.4708,101.1971 586.386,106.9558 603.5,111 C680.0226,129.0832 707.9386,96.4165 779.5,129 C814.4128,144.8966 808.3856,170.4555 842.5,188 C880.7913,207.6926 895.0005,200.0848 937.5,207 C1016.8859,219.9171 1109.1369,230.831 1167.891,237.2705" fill="none" style="stroke:#181818;stroke-width:2;"/><text fill="#000000" font-family="sans-serif" font-size="11" lengthAdjust="spacing" textLength="8.3599" x="844.5" y="172.7589">N</text></g><g class="link" data-entity-1="ent0035" data-entity-2="ent0001" data-link-type="association" id="lnk50"><path d="M944.8271,76.3777 C882.2615,88.6439 799.1511,110.5831 733.5,148 C711.1042,160.7641 714.2875,175.9491 691.5,188 C621.4324,225.0544 528.242,237.3732 475.1792,241.4661" fill="none" style="stroke:#181818;stroke-width:2;"/><text fill="#000000" font-family="sans-serif" font-size="11" lengthAdjust="spacing" textLength="6.2919" x="735.5" y="172.7589">1</text></g><g class="link" data-entity-1="ent0035" data-entity-2="ent0013" data-link-type="association" id="lnk51"><path d="M1128.0973,78.5352 C1262.4212,102.1384 1497.9671,143.9008 1506.5,148 C1530.921,159.7319 1530.4491,172.2589 1552.5,188 C1571.4592,201.5341 1593.9428,214.6731 1612.3836,224.767" fill="none" style="stroke:#181818;stroke-width:2;"/><text fill="#000000" font-family="sans-serif" font-size="11" lengthAdjust="spacing" textLength="8.3599" x="1554.5" y="172.7589">N</text></g><g class="link" data-entity-1="ent0036" data-entity-2="ent0013" data-link-type="association" id="lnk52"><path d="M1454.1442,91.3187 C1469.9312,97.9474 1486.7568,104.8516 1502.5,111 C1524.5001,119.5921 1534.3868,113.8429 1552.5,129 C1575.7103,148.4224 1567.4292,164.4999 1586.5,188 C1597.5149,201.5732 1611.9684,214.7144 1624.149,224.7997" fill="none" style="stroke:#181818;stroke-width:1;"/><text fill="#000000" font-family="sans-serif" font-size="11" lengthAdjust="spacing" textLength="22.1318" x="1588.5" y="172.7589">(1,1)</text></g><g class="link" data-entity-1="ent0036" data-entity-2="ent0008" data-link-type="association" id="lnk53"><path d="M1375.8109,95.1677 C1364.7977,122.4511 1346.1504,161.0967 1320.5,188 C1306.0982,203.1053 1286.7011,215.5457 1269.3482,224.7923" fill="none" style="stroke:#181818;stroke-width:1;"/><text fill="#000000" font-family="sans-serif" font-size="11" lengthAdjust="spacing" textLength="24.1998" x="1352.5" y="172.7589">(0,N)</text></g><g class="link" data-entity-1="ent0037" data-entity-2="ent0013" data-link-type="association" id="lnk54"><path d="M1588.3174,91.6065 C1597.3376,107.8828 1608.2596,128.7195 1616.5,148 C1627.6328,174.0478 1637.4901,205.372 1643.228,224.8637" fill="none" style="stroke:#181818;stroke-width:1;"/><text fill="#000000" font-family="sans-serif" font-size="11" lengthAdjust="spacing" textLength="22.1318" x="1633.5" y="172.7589">(1,1)</text></g><g class="link" data-entity-1="ent0037" data-entity-2="ent0008" data-link-type="association" id="lnk55"><path d="M1516.111,91.6328 C1488.3513,107.1023 1454.7268,127.1895 1426.5,148 C1405.2278,163.6831 1405.1568,174.3934 1382.5,188 C1353.0958,205.6589 1317.2004,218.9574 1287.3602,228.1032" fill="none" style="stroke:#181818;stroke-width:1;"/><text fill="#000000" font-family="sans-serif" font-size="11" lengthAdjust="spacing" textLength="24.1998" x="1428.5" y="172.7589">(0,N)</text></g><g class="link" data-entity-1="ent0038" data-entity-2="ent0008" data-link-type="association" id="lnk56"><path d="M2217.3166,90.5931 C2199.2684,98.4686 2178.9148,106.1857 2159.5,111 C1969.0231,158.2327 1904.2602,81.848 1719.5,148 C1690.0191,158.5554 1690.7456,176.8089 1661.5,188 C1594.4579,213.6544 1389.8519,231.6792 1287.3457,239.3569" fill="none" style="stroke:#181818;stroke-width:1;"/><text fill="#000000" font-family="sans-serif" font-size="11" lengthAdjust="spacing" textLength="6.2919" x="1721.5" y="172.7589">1</text></g><g class="link" data-entity-1="ent0038" data-entity-2="ent0018" data-link-type="association" id="lnk57"><path d="M2289.9806,90.705 C2311.1652,126.7558 2345.7956,184.9187 2350.5,188 C2412.0586,228.319 2643.234,239.921 2720.8821,242.7182" fill="none" style="stroke:#181818;stroke-width:2;"/><text fill="#000000" font-family="sans-serif" font-size="11" lengthAdjust="spacing" textLength="6.2919" x="2352.5" y="172.7589">1</text></g><g class="link" data-entity-1="ent0039" data-entity-2="ent0023" data-link-type="association" id="lnk58"><path d="M2072.7263,111.2457 C2083.7594,135.3405 2098.6088,164.2631 2115.5,188 C2125.0093,201.3632 2137.7191,214.5943 2148.4192,224.7843" fill="none" style="stroke:#181818;stroke-width:1;"/><text fill="#000000" font-family="sans-serif" font-size="11" lengthAdjust="spacing" textLength="22.1318" x="2117.5" y="172.7589">(0,1)</text></g><g class="link" data-entity-1="ent0039" data-entity-2="ent0008" data-link-type="association" id="lnk59"><path d="M1953.8161,99.1852 C1938.7943,103.7611 1923.3503,107.9099 1908.5,111 C1814.1691,130.6287 1557.2684,95.4636 1476.5,148 C1459.4921,159.0629 1470.6043,175.6588 1454.5,188 C1406.1966,225.0164 1336.5645,237.7086 1287.1819,241.873" fill="none" style="stroke:#181818;stroke-width:1;"/><text fill="#000000" font-family="sans-serif" font-size="11" lengthAdjust="spacing" textLength="22.1318" x="1478.5" y="172.7589">(0,1)</text></g><g class="link" data-entity-1="ent0040" data-entity-2="ent0023" data-link-type="association" id="lnk60"><path d="M1899.5421,95.8798 C1945.6632,113.8408 1996.6113,134.928 2017.5,148 C2040.1836,162.1953 2040.4536,172.8341 2062.5,188 C2083.0169,202.1138 2107.5801,215.0986 2127.9944,224.9543" fill="none" style="stroke:#181818;stroke-width:1;"/><text fill="#000000" font-family="sans-serif" font-size="11" lengthAdjust="spacing" textLength="22.1318" x="2064.5" y="172.7589">(0,1)</text></g><g class="link" data-entity-1="ent0040" data-entity-2="ent0001" data-link-type="association" id="lnk61"><path d="M1721.3707,91.9954 C1695.5517,99.426 1667.1391,106.5481 1640.5,111 C1488.1712,136.4568 1083.3188,76.3571 946.5,148 C926.5747,158.4335 935.0958,176.96 915.5,188 C840.4608,230.2761 577.7315,240.4256 475.0609,242.7982" fill="none" style="stroke:#181818;stroke-width:1;"/><text fill="#000000" font-family="sans-serif" font-size="11" lengthAdjust="spacing" textLength="22.1318" x="948.5" y="172.7589">(1,1)</text></g><g class="link" data-entity-1="ent0041" data-entity-2="ent0023" data-link-type="association" id="lnk62"><path d="M2507.4521,89.9991 C2475.5096,105.0521 2437.0624,125.26 2405.5,148 C2384.8448,162.8816 2386.5271,175.2365 2364.5,188 C2319.7307,213.9413 2262.0794,228.3905 2221.1018,235.992" fill="none" style="stroke:#181818;stroke-width:1;"/><text fill="#000000" font-family="sans-serif" font-size="11" lengthAdjust="spacing" textLength="22.1318" x="2407.5" y="172.7589">(0,1)</text></g><g class="link" data-entity-1="ent0041" data-entity-2="ent0018" data-link-type="association" id="lnk63"><path d="M2635.6333,69.9667 C2684.1431,79.3518 2747.6585,100.4846 2779.5,148 C2795.6129,172.0443 2777.2464,204.7667 2762.1529,224.992" fill="none" style="stroke:#181818;stroke-width:1;"/><text fill="#000000" font-family="sans-serif" font-size="11" lengthAdjust="spacing" textLength="22.1318" x="2788.5" y="172.7589">(1,1)</text></g><g class="link" data-entity-1="ent0042" data-entity-2="ent0018" data-link-type="association" id="lnk64"><path d="M2887.5352,107.0381 C2875.1651,139.3678 2853.9586,181.709 2821.5,207 C2806.6504,218.5705 2787.5419,227.8021 2772.3292,234.0865" fill="none" style="stroke:#181818;stroke-width:1;"/><text fill="#000000" font-family="sans-serif" font-size="11" lengthAdjust="spacing" textLength="24.1998" x="2871.5" y="172.7589">(1,N)</text></g><g class="link" data-entity-1="ent0042" data-entity-2="ent0026" data-link-type="association" id="lnk65"><path d="M2910.9574,107.201 C2917.9628,132.7118 2929.4824,164.2396 2947.5,188 C2958.7512,202.8374 2975.0724,215.3897 2989.7955,224.7834" fill="none" style="stroke:#181818;stroke-width:1;"/><text fill="#000000" font-family="sans-serif" font-size="11" lengthAdjust="spacing" textLength="24.1998" x="2949.5" y="172.7589">(0,N)</text></g><g class="link" data-entity-1="ent0043" data-entity-2="ent0018" data-link-type="association" id="lnk66"><path d="M3150.3672,81.874 C3104.8492,95.2839 3049.1917,116.4886 3006.5,148 C2988.4039,161.357 2994.3794,175.7752 2975.5,188 C2910.6015,230.0231 2816.7111,240.2472 2772.0107,242.7205" fill="none" style="stroke:#181818;stroke-width:1;"/><text fill="#000000" font-family="sans-serif" font-size="11" lengthAdjust="spacing" textLength="24.1998" x="3008.5" y="172.7589">(1,N)</text></g><g class="link" data-entity-1="ent0043" data-entity-2="ent0029" data-link-type="association" id="lnk67"><path d="M3308.509,103.0685 C3324.1969,115.3099 3338.6489,130.2978 3347.5,148 C3359.9933,172.9866 3346.4419,204.871 3334.9472,224.7395" fill="none" style="stroke:#181818;stroke-width:1;"/><text fill="#000000" font-family="sans-serif" font-size="11" lengthAdjust="spacing" textLength="24.1998" x="3353.5" y="172.7589">(0,N)</text></g><?plantuml-src xLPDRziu4BthLt1psLsWDk8UUWYQ88fhUuMwqgwa8EX9eArnJ4GclHHjnoZwtpkalcCg2NgsBvOuyzvmgCUPkSqLbMgv1kxyiPNqSKD9HezYfqY-0KKvTPm_YVi8NB4bUH3oQPM90va11qcLaDfQhou5Lr9avX-U5TgqURhBCgBnYa5E5f09_aYK86hDy5NiU0ff1HbgG0WhaC2NqA2e19B2Yd5qfJkr5f8fgjWUiYE1B8V36X48De0ZkQYsT45eJXw2yEjq7ZoG7muXd6w0N94e3Zr_HZv_VeBZpGskxq7cJF3QX4ihoh9n9dACUKNkWc0-SNtdvsaGWaUee1CgYM8tdY3z0UZJpSshaHN83UCqimU99UKv7eBW9a0SkdxanLxWTybPQgE6FT8qARLePzMEP-_Uvo8JooU6tywwpr1aG1QCf-XXY4DqIUuy_ql18gkFMaP1dO1lZTGY7TCjNR0CdmtbsFtNlVFcNlpTGiZV8dEbOYkwL8LCyS5mkc7iJTrnd8m37mzt75kerN5hfvQGKVrfyZNRaWjpar2h1J4g88oZn8sHuiGLjKnt6JfhZUrGt4eOq9V9rBsV8spgUlFxS9B4WGskCw2CvotbwUsxdX_LocEfJdnrnEzXqkWdKLs9rKmThRr9LsQ_ac9ZQAPXyAtSZCLROeN1Ursc7GVzdckqFrPP_kD6oUoT-ManvkHmUacrAAF-W6KLQw3rgQ2aewHLJKwWui1RcmqU_7AtjWE0_tTCuX4iknhN_aau-U_U2oTHqbByQnoqbBQ5eT9tWMz4EVXhz67qzw2kM1tJPSTK79LZq-O9Yzt9olT2iTUZwuRcfSs_xaMtL6gdQ3iWJ_Fgj2HQ9T9dlVpWdsPGozQ2Rjcis5h9Wr6_JIUa7vosPAlZR1TOguFbnBeAjZBPt5vyv4ROLeQskK2Q77gLhRtyTtWLvzWiEJrAVuMlvLEmdPH_FO1uV4ybenpB6HUAmFCMBrdE5hh37V72obJtQzrKA0upSAKn0pB14UA803weExgfEKHNC7Z6wud32hgR0Z4iC777CqVNFI25SI525ii3B2iWg-OwV4Sq7UKjQ5qONswlh7_P2SurJRjQ93YzSHmmq4keTHcy24Tvsc8fqP7k3yPKDh-wzvMvjoT3gBTNeaFi5pfeuPGRhxfjvVsq2By5dfhvrhbzUzOrl_CKUPuYprFaUOeyJv7dAV8yHPwdoD-P8gjVCtsCXXylFtuQVle5?></g></svg>